<?xml version="1.0" encoding="UTF-8" standalone="no"?><!DOCTYPE svg PUBLIC "-//W3C//DTD SVG 1.1//EN" "http://www.w3.org/Graphics/SVG/1.1/DTD/svg11.dtd"><svg width="100%" height="100%" viewBox="0 0 651 352" version="1.1" xmlns="http://www.w3.org/2000/svg" xmlns:xlink="http://www.w3.org/1999/xlink" xml:space="preserve" style="fill-rule:evenodd;clip-rule:evenodd;stroke-linejoin:round;stroke-miterlimit:1.41421;"><g><g><path d="M102.042,258.438l0,-0.306c-0.307,0 -0.307,0.306 -0.613,0.306c0,0 0,0.307 0.306,0.307l0.307,-0.307ZM103.882,250.159c-0.307,-0.306 -0.613,-0.613 0,-1.533l0,1.533ZM108.788,241.88c0,0.306 0.307,0 0.307,0c-0.307,0 -0.307,0 -0.613,-0.307c0,0.307 0.306,0.307 0.306,0.307ZM109.708,240.04c0,-0.307 0,-0.307 0,-0.613l-0.613,0c0,0.306 0,0.306 0.307,0.613c0,0 0,0.307 0.306,0.307l0,-0.307ZM125.654,212.442l0.306,0l0,-0.306l-0.306,0.306ZM197.101,99.291c-0.306,0 -0.306,0 -0.306,-0.306l0.306,0l0,0.306ZM260.883,80.279c0,-0.306 -0.307,-0.306 -0.307,-0.306c0,0.306 0.307,0.306 0.307,0.306ZM260.576,79.666c0,0 0,0.307 -0.307,0.307l0.307,0l0,-0.307ZM264.562,79.666c0.307,0 0.614,0 0.92,-0.307l-0.306,0l-0.614,0l0,0.307ZM262.723,79.666l-0.307,-0.307l0,0.307l0.307,0ZM304.119,64.641c-3.066,0.92 -6.133,0.92 -9.506,1.226c-2.453,0 -5.213,0 -7.666,0.92c-1.226,0.307 -2.759,0.307 -3.986,0.307c-4.293,0 -8.893,0.613 -13.186,0.92c-4.906,0.306 -9.506,0.92 -14.412,1.533c-4.906,0.613 -9.812,0.92 -14.719,1.84c-5.519,1.226 -11.039,1.84 -16.252,2.453c-7.972,1.226 -15.945,2.76 -23.918,3.373c-2.146,0.307 -4.293,0.92 -6.439,1.227c-3.067,0.306 -5.826,0.613 -8.586,1.226c-1.533,0.307 -3.067,0.613 -4.6,0l0,-6.439c0.307,-1.227 0,-2.147 -0.613,-2.76c-3.067,-4.906 -7.666,-7.666 -13.186,-9.199c-0.92,-0.307 -1.84,0.306 -2.146,1.226c-0.307,1.227 -0.614,2.147 -1.227,3.067c-1.533,3.679 -3.066,7.052 -4.906,10.732c-1.533,3.68 -3.067,7.359 -4.906,11.039l-4.907,0.92c-5.826,1.227 -11.652,2.76 -17.172,3.986c-8.892,2.147 -17.785,4.293 -26.677,6.44l-18.092,4.6c-8.28,2.146 -16.252,4.599 -24.225,7.666c-8.279,3.066 -16.559,5.826 -24.531,9.812c-0.92,0.307 -1.84,0.92 -2.76,0.613c-1.84,-0.306 -3.373,0.92 -5.213,0.92c-0.613,1.84 -0.307,3.373 0.613,4.6c0.613,0.92 1.227,1.84 0.92,2.76c-0.307,0.306 0,0.92 0.307,1.533c0.613,1.533 5.826,6.746 7.359,7.359c3.68,1.227 7.666,2.147 11.653,3.373l1.533,0c2.76,0 5.213,0.614 7.666,0c2.146,0 4.293,-0.306 6.439,-1.226c6.746,-2.453 13.799,-4.293 20.852,-6.133c6.746,-1.533 13.186,-3.986 19.625,-6.133c2.453,-0.92 5.213,-1.84 7.666,-3.066c0.613,-0.613 1.533,-0.613 2.453,-0.92c0.92,0 2.147,0.307 3.067,0c1.226,-0.307 1.84,-0.92 2.759,-1.533c0.307,0 0.614,-0.307 0.92,-0.307c2.453,-0.307 4.6,-1.84 7.36,-1.84c0.613,0 1.226,-0.306 1.84,-0.613c2.453,-1.227 5.213,-1.227 7.666,-2.147c0.306,0 0.613,0.307 0.92,0.307c0,0.613 -0.307,1.227 -0.614,2.147c-0.92,2.453 -2.146,5.212 -3.373,7.972c-4.293,9.506 -7.666,19.319 -12.265,28.825c-0.307,0.613 -0.614,1.226 -0.614,1.533c-0.306,2.453 -1.533,4.599 -2.453,7.053l-2.76,6.439c-2.453,5.826 -4.906,12.266 -7.359,19.012c-2.453,7.053 -5.213,14.105 -8.279,21.465c-1.227,3.373 -2.76,7.359 -4.293,10.732c-1.227,3.067 -1.84,6.133 -3.373,9.2c-0.307,0.306 -0.307,0.613 -0.307,0.919c-0.613,3.067 -1.84,5.827 -2.76,8.586c-0.613,1.227 -0.92,2.76 -1.226,3.987c-1.227,5.519 -1.84,11.039 -3.987,16.252c-0.92,2.146 -1.533,4.906 -1.84,7.359c-0.306,2.76 0.614,5.52 -1.226,8.28l0,0.613c0,3.066 0,6.133 -1.533,8.892c-0.307,0.92 0,2.147 0,3.067l0.92,0c2.759,-0.92 5.212,-2.453 6.439,-5.213c1.227,-1.227 0.92,-2.76 1.533,-3.986c0.307,-1.534 1.227,-2.76 1.227,-4.293c0.306,-1.227 1.533,-2.453 0.92,-3.987c1.226,-2.453 1.226,-4.906 3.066,-7.052c0.92,-0.614 1.533,-1.84 1.533,-2.76c0,-0.92 0,-1.84 0.614,-2.76c0.306,-0.307 0,-0.613 0,-0.92c0,-1.533 0.306,-2.76 1.533,-3.68c0,-0.306 0.613,-0.613 0.613,-0.92c-0.613,-2.146 0.92,-3.066 1.84,-4.599c1.227,-1.84 1.84,-3.68 2.453,-5.826c0.307,-1.227 0.613,-2.454 1.84,-3.067c0,-0.92 0,-1.84 0.92,-2.146c0,-0.307 0.307,-0.614 0.307,-1.227c0.306,0.613 0.306,0.92 0.306,0.92c0.307,0 0.613,-0.307 0.92,-0.613l5.52,-10.426c0.613,-1.533 0.92,-2.76 2.453,-3.68c0.613,-0.306 1.226,-1.226 1.533,-2.146c0.92,-3.067 2.76,-5.213 3.986,-7.973c0.307,-0.613 0.614,-1.533 1.534,-1.84c0,-1.533 0.613,-2.453 1.533,-3.373c0.92,-1.84 2.453,-3.373 3.373,-5.213c1.84,-3.986 4.599,-7.666 7.053,-11.346c2.453,-3.679 5.213,-7.359 5.826,-11.959c0,-0.306 0.306,-0.613 0.306,-0.92c2.147,-3.066 3.68,-6.132 5.827,-8.892c2.453,-3.067 4.599,-6.44 6.132,-9.813l3.68,-7.666c1.533,-2.146 2.453,-4.599 3.68,-7.053c1.226,-2.759 2.146,-5.826 3.68,-8.892l1.839,-4.906c0.614,-1.84 1.534,-3.68 1.84,-5.52l0.92,-2.453c0.92,-2.76 1.84,-5.52 2.76,-8.586l1.227,-4.906c1.226,-0.614 2.453,-1.227 3.373,-1.84c4.906,-1.84 9.812,-3.987 14.412,-5.826c2.76,-1.227 5.213,-1.84 7.973,-3.067c0,0 0,-0.306 0.306,-0.306c-0.92,-0.614 -2.453,0 -2.76,-1.534c4.293,-1.226 8.28,-2.453 12.266,-3.986c2.147,-0.613 4.293,-1.227 6.44,-1.533c3.373,-0.92 6.439,-2.147 9.812,-3.373c3.067,-1.227 6.133,-2.147 8.893,-3.68c1.84,-1.227 3.986,-1.84 6.133,-2.147c3.679,-0.919 7.666,-1.533 11.652,-2.146c2.453,-0.307 4.293,-1.227 6.439,-1.533c-0.919,-0.92 -2.146,-0.92 -3.066,-0.307c-1.227,0.307 -2.146,0.307 -3.066,-0.307c2.453,-0.919 5.213,-1.226 7.972,-1.533c1.534,-0.306 3.373,-0.306 4.907,-0.92c3.679,-0.613 7.052,-1.84 10.732,-2.146c0.307,0 1.227,0 1.227,-0.307c0.92,-0.92 1.839,-0.92 3.066,-1.226c1.84,-0.614 3.68,-1.534 5.52,-2.147c2.453,-1.84 5.213,-2.146 7.972,-3.066c3.373,-0.614 6.44,-1.84 9.506,-2.76c0,0 0,-0.307 0.307,-0.613l-1.227,0Z" style="fill:#57cac7;fill-rule:nonzero;"/><path d="M190.048,143.141c1.227,3.066 -0.92,4.906 -2.146,6.746c-2.76,4.906 -6.133,9.506 -12.266,11.346c-0.92,-3.066 0,-5.213 1.533,-7.053c2.147,-2.453 4.293,-4.599 6.747,-6.746c1.839,-1.533 3.066,-3.68 6.132,-4.293ZM226.539,242.493c1.226,-1.533 1.226,-3.066 2.453,-3.986c1.84,-1.227 1.533,-2.76 2.453,-3.987c0.613,-1.226 0.613,-2.759 1.227,-3.986c3.373,-4.6 4.599,-9.506 7.666,-14.412c2.76,-6.133 5.213,-9.506 7.666,-16.559c1.226,-3.68 0.92,-7.359 3.066,-10.119c2.76,-3.68 0.613,-5.52 3.68,-8.279c0.92,-4.293 0.92,-7.36 3.373,-10.426c0.307,-0.613 0.307,-1.227 0.613,-1.84l-2.146,-1.227c-0.92,0 -0.92,0 -1.533,-0.306c-3.067,1.226 -3.374,3.373 -4.6,5.519c-3.373,5.827 -4.906,8.586 -7.359,13.799l-6.133,13.492c-1.227,2.76 -2.147,5.52 -4.293,7.667c-1.227,1.226 -1.227,2.759 -2.147,3.986c-1.533,-0.613 -0.92,2.146 -2.146,4.6l-6.133,11.039c-1.84,3.066 -3.987,6.439 -7.36,8.892c-0.306,-0.92 -0.613,-1.533 -0.613,-2.146c-0.613,-5.213 -0.613,-10.119 -0.306,-15.332c0.306,-1.84 0.613,-3.373 0.613,-5.213c0,-7.36 1.533,-11.039 3.066,-18.092c1.227,-4.6 2.76,-8.893 3.373,-11.039c0.614,-2.453 0.92,-4.293 1.533,-4.907c2.76,-2.759 0.614,-7.359 -2.759,-9.812c-2.453,-2.147 -4.907,-3.986 -7.666,-5.213c-0.92,-0.307 -1.84,-0.92 -2.76,-0.92c-3.68,-0.613 -7.36,-0.613 -11.039,-1.227c-0.614,0 -1.533,0 -2.147,-0.306c0.614,-1.84 1.227,-3.373 1.533,-4.906c0.307,-2.147 0.92,-4.293 1.84,-6.747c0.614,-2.146 0.92,-4.599 1.227,-7.052c0.307,-2.453 -0.92,-4.6 -2.76,-6.133c-2.146,-1.84 -4.293,-3.067 -6.746,-3.68c-1.84,-0.613 -3.68,-0.613 -5.52,-1.226c-3.066,-0.92 -5.826,-0.307 -8.279,1.533c-4.6,3.373 -4.6,3.373 -9.812,10.426c-0.614,0.613 -0.614,0.613 -0.92,1.839c-3.067,7.973 -1.534,6.747 -0.92,14.413c1.533,2.146 1.226,4.599 3.066,6.746c2.76,2.453 2.147,4.906 5.213,7.053c4.906,3.679 10.732,4.293 16.559,4.293c3.066,-1.227 6.439,0 10.119,0c-5.213,9.199 -4.6,7.052 -11.653,28.211c-1.533,4.293 -2.759,11.039 -3.066,18.398c0,3.986 0.613,7.973 0.92,11.653c1.227,6.132 2.146,9.812 7.973,12.879c1.84,0.919 3.986,1.839 5.826,3.066c3.066,2.146 6.133,1.533 9.199,0.307c2.453,-0.92 4.906,-1.84 7.053,-3.067c2.76,-1.226 5.826,-3.373 7.666,-5.519c0,-0.307 1.84,-0.92 1.84,-2.147Z" style="fill:#57cac7;fill-rule:nonzero;"/><path d="M268.855,183.618c0,-3.067 1.227,-5.213 2.454,-7.36l2.453,-4.599c1.533,-2.76 2.453,-5.52 3.986,-8.28c0.613,-1.226 1.533,-2.453 2.147,-3.986c0.919,-2.453 2.453,-4.906 6.132,-5.213c0,0.613 0.307,1.227 0.307,1.84c-0.613,1.227 -0.613,2.453 -0.613,3.986c0.306,1.534 0,3.067 -0.614,4.6c-2.146,3.986 -4.293,8.279 -7.666,11.959c-2.453,2.76 -5.212,4.906 -8.586,7.053ZM303.506,208.762c0,-0.306 3.373,-4.293 3.68,-4.906c2.759,-3.68 5.213,-7.666 7.972,-11.346c3.067,-4.599 6.133,-9.199 8.893,-13.798c1.533,-2.454 2.453,-4.907 1.533,-8.28c-0.613,-2.146 -2.453,-4.599 -4.599,-2.146c-1.534,1.533 -3.067,3.066 -4.293,4.906c-3.68,4.906 -7.053,9.813 -10.12,15.025c-3.679,6.133 -8.279,11.346 -12.572,16.866c-3.68,4.293 -7.666,7.972 -11.652,11.959c-4.6,4.599 -9.506,7.972 -15.026,10.732c-2.146,1.227 -4.293,1.84 -6.439,2.76c-2.453,0.92 -4.6,0.307 -6.44,-1.533c0,-1.84 -0.306,-3.373 -0.613,-5.213c0.92,-1.533 1.533,-3.68 1.533,-5.826c0,-0.92 0,-1.533 0.307,-2.147c1.533,-4.599 3.373,-8.892 5.213,-13.185c0.92,-2.76 2.146,-5.52 4.599,-7.36c0.92,0 1.84,0.307 2.454,0c1.533,-0.92 3.373,-1.226 5.212,-1.533c0.92,0 1.534,-0.613 2.454,-1.227c2.146,-1.839 4.293,-3.373 7.052,-4.293c0.614,-0.306 1.534,-0.613 1.84,-1.226c1.533,-2.147 3.373,-3.68 5.213,-5.213c1.84,-2.147 3.373,-4.6 4.906,-6.746c3.373,-5.52 4.907,-11.653 4.6,-18.399c-0.307,-3.679 -1.533,-6.746 -4.6,-9.199c-3.373,-2.76 -7.052,-4.906 -11.652,-5.213c-0.613,-0.307 -1.533,-0.307 -2.147,-0.613c-1.839,-1.227 -3.679,-1.533 -5.826,-1.84c-3.986,2.146 -7.972,4.6 -10.732,7.973l-7.973,8.892c-5.519,6.133 -10.119,12.573 -13.799,19.932c-1.84,3.373 -3.679,6.746 -5.213,10.426c-3.679,7.666 -6.439,15.332 -6.746,23.918c-0.306,6.133 1.227,11.959 3.987,17.172c2.759,5.213 6.746,9.199 12.572,11.039c1.226,0.307 2.453,0.92 3.373,0.92c5.519,-0.307 10.732,0.307 15.945,-1.227c3.067,-0.92 6.746,-1.533 9.506,-3.373c3.68,-2.146 7.053,-4.599 10.119,-7.972c1.227,-0.92 1.84,-2.454 3.067,-3.373c4.293,-4.293 7.666,-9.506 12.572,-13.186c0.613,-0.613 1.533,-2.147 1.84,-2.147Z" style="fill:#57cac7;fill-rule:nonzero;"/><path d="M324.971,222.561c-1.84,3.067 -3.986,5.827 -6.133,8.586c-1.84,2.147 -4.293,3.68 -6.133,5.52c-0.92,-0.307 -0.92,-0.92 -0.92,-1.227c0.307,-0.92 0.307,-1.533 0.307,-2.146c0.307,-1.84 0.92,-3.373 2.76,-4.293c0.92,-0.613 1.84,-1.84 2.453,-3.067c0.613,-1.839 1.84,-3.066 3.68,-3.986c1.839,-0.613 3.066,-1.84 3.986,-3.373c0.92,-1.84 1.84,-3.066 3.68,-3.986c-0.307,3.066 -2.147,5.519 -3.68,7.972ZM389.979,160.006c-0.613,-0.613 -1.226,-0.92 -2.146,-0.613c-0.614,0.307 -1.534,0.307 -2.147,0.92c-1.84,1.84 -3.986,3.373 -6.133,4.6c-3.373,2.453 -7.053,4.906 -10.426,7.359l-9.505,6.746c-2.76,-1.84 -4.907,-3.986 -7.667,-5.519c-2.759,-1.227 -5.212,-3.067 -8.279,-4.293c-2.76,-0.92 -6.133,-0.614 -9.199,-1.534c0.92,-2.759 2.146,-4.906 3.986,-6.746c0.613,-0.613 0.92,-1.533 1.533,-2.453c2.454,-3.68 5.52,-7.359 8.28,-11.039l2.76,-3.68c2.759,-3.679 1.839,-7.052 -1.227,-9.812l-2.147,-1.84c-1.839,-2.453 -4.293,-3.986 -7.052,-5.52c-1.84,-1.226 -3.68,-0.92 -5.52,0.307c-4.906,2.76 -8.892,6.439 -12.879,10.426c-3.373,3.373 -6.746,6.746 -8.892,11.039c-1.84,2.453 -2.76,5.52 -4.293,8.279c-1.84,3.68 -2.454,7.36 -3.067,11.346c-0.307,1.533 0.307,3.066 1.227,4.6c3.373,4.599 8.279,7.666 12.572,11.345c0.307,0.307 0.613,0.614 0.92,0.614c2.76,1.533 5.826,2.453 8.893,2.453l7.666,0c-0.307,2.453 -0.307,4.906 -0.614,7.666c0,2.146 -0.92,3.986 -3.066,5.213c-0.92,0.92 -1.84,1.84 -2.76,2.453c-3.373,2.146 -5.519,5.52 -8.586,7.973c-6.746,5.826 -12.879,12.265 -19.625,18.398c-0.307,0.307 -0.613,0.613 -0.613,0.92c-0.613,1.533 -1.84,2.453 -3.067,3.68c-1.839,2.146 -2.146,4.599 -1.533,7.053c0.92,2.146 1.84,4.293 3.68,6.132c1.226,1.227 2.76,2.147 4.293,3.067c1.533,0.92 6.439,1.226 7.973,0.613c1.533,-0.92 3.066,-0.92 4.906,-1.226c3.373,-0.307 7.053,-1.227 9.812,-3.373c1.534,-1.227 3.067,-2.454 4.6,-3.374c1.227,-1.226 2.453,-2.453 3.373,-3.986c0.613,-0.92 1.533,-1.84 2.453,-2.453c2.147,-2.147 4.293,-4.293 5.826,-6.746c2.454,-3.987 4.6,-8.279 7.36,-12.266c3.986,-5.826 5.826,-12.572 8.892,-19.012c0.307,-0.306 0.307,-0.92 0.307,-1.533l0.92,-8.892c3.986,-3.067 7.973,-6.747 12.572,-9.506c4.6,-2.76 7.973,-6.747 11.653,-10.426c1.226,-1.227 2.146,-2.453 3.373,-3.68l0.92,-1.227c0.306,-0.919 0.306,-1.533 -0.307,-2.453Z" style="fill:#57cac7;fill-rule:nonzero;"/><path d="M379.247,222.561c-1.84,3.067 -3.987,5.827 -6.133,8.586c-1.84,2.147 -4.293,3.68 -6.133,5.52c-0.92,-0.307 -0.92,-0.92 -0.92,-1.227c0.307,-0.92 0.307,-1.533 0.307,-2.146c0.306,-1.84 0.92,-3.373 2.759,-4.293c0.92,-0.613 1.84,-1.84 2.454,-3.067c0.613,-1.839 1.839,-3.066 3.679,-3.986c1.84,-0.613 3.067,-1.84 3.987,-3.373c0.92,-1.84 1.839,-3.066 3.679,-3.986c-0.306,3.066 -2.146,5.519 -3.679,7.972ZM444.255,160.006c-0.614,-0.613 -1.227,-0.92 -2.147,-0.613c-0.613,0.307 -1.533,0.307 -2.146,0.92c-1.84,1.84 -3.987,3.373 -6.133,4.6c-3.373,2.453 -7.053,4.906 -10.426,7.359l-9.506,6.746c-2.76,-1.84 -4.906,-3.986 -7.666,-5.519c-2.76,-1.227 -5.213,-3.067 -8.279,-4.293c-2.76,-0.92 -6.133,-0.614 -9.199,-1.534c0.919,-2.759 2.146,-4.906 3.986,-6.746c0.613,-0.613 0.92,-1.533 1.533,-2.453c2.453,-3.68 5.52,-7.359 8.279,-11.039l2.76,-3.68c2.76,-3.679 1.84,-7.052 -1.226,-9.812l-2.147,-1.84c-1.84,-2.453 -4.293,-3.986 -7.053,-5.52c-1.84,-1.226 -3.679,-0.92 -5.519,0.307c-4.906,2.76 -8.893,6.439 -12.879,10.426c-3.373,3.373 -6.746,6.746 -8.893,11.039c-1.84,2.453 -2.76,5.52 -4.293,8.279c-1.84,3.68 -2.453,7.36 -3.066,11.346c-0.307,1.533 0.306,3.066 1.226,4.6c3.373,4.599 8.28,7.666 12.573,11.345c0.306,0.307 0.613,0.614 0.92,0.614c2.759,1.533 5.826,2.453 8.892,2.453l7.666,0c-0.306,2.453 -0.306,4.906 -0.613,7.666c0,2.146 -0.92,3.986 -3.066,5.213c-0.92,0.92 -1.84,1.84 -2.76,2.453c-3.373,2.146 -5.52,5.52 -8.586,7.973c-6.746,5.826 -12.879,12.265 -19.625,18.398c-0.307,0.307 -0.614,0.613 -0.614,0.92c-0.613,1.533 -1.839,2.453 -3.066,3.68c-1.84,2.146 -2.146,4.599 -1.533,7.053c0.92,2.146 1.84,4.293 3.68,6.132c1.226,1.227 2.759,2.147 4.293,3.067c1.533,0.92 6.439,1.226 7.972,0.613c1.533,-0.92 3.067,-0.92 4.906,-1.226c3.374,-0.307 7.053,-1.227 9.813,-3.373c1.533,-1.227 3.066,-2.454 4.6,-3.374c1.226,-1.226 2.453,-2.453 3.373,-3.986c0.613,-0.92 1.533,-1.84 2.453,-2.453c2.146,-2.147 4.293,-4.293 5.826,-6.746c2.453,-3.987 4.6,-8.279 7.359,-12.266c3.987,-5.826 5.827,-12.572 8.893,-19.012c0.307,-0.306 0.307,-0.92 0.307,-1.533l0.92,-8.892c3.986,-3.067 7.972,-6.747 12.572,-9.506c4.6,-2.76 7.973,-6.747 11.652,-10.426c1.227,-1.227 2.147,-2.453 3.373,-3.68l0.92,-1.227c0.307,-0.919 0.307,-1.533 -0.306,-2.453Z" style="fill:#57cac7;fill-rule:nonzero;"/><path d="M454.681,183.618c0,-3.067 1.226,-5.213 2.453,-7.36l2.453,-4.599c1.533,-2.76 2.453,-5.52 3.986,-8.28c0.613,-1.226 1.533,-2.453 2.147,-3.986c0.92,-2.453 2.453,-4.906 6.133,-5.213c0,0.613 0.306,1.227 0.306,1.84c-0.613,1.227 -0.613,2.453 -0.613,3.986c0.307,1.534 0,3.067 -0.613,4.6c-2.147,3.986 -4.293,8.279 -7.666,11.959c-2.454,2.76 -5.213,4.906 -8.586,7.053ZM489.331,208.762c0,-0.306 3.373,-4.293 3.68,-4.906c2.76,-3.68 5.213,-7.666 7.973,-11.346c3.066,-4.599 6.132,-9.199 8.892,-13.798c1.533,-2.454 2.453,-4.907 1.533,-8.28c-0.613,-2.146 -2.453,-4.599 -4.599,-2.146c-1.533,1.533 -3.067,3.066 -4.293,4.906c-3.68,4.906 -7.053,9.813 -10.119,15.025c-3.68,6.133 -8.28,11.346 -12.573,16.866c-3.679,4.293 -7.666,7.972 -11.652,11.959c-4.6,4.599 -9.506,7.972 -15.026,10.732c-2.146,1.227 -4.293,1.84 -6.439,2.76c-2.453,0.92 -4.6,0.307 -6.44,-1.533c0,-1.84 -0.306,-3.373 -0.613,-5.213c0.92,-1.533 1.533,-3.68 1.533,-5.826c0,-0.92 0,-1.533 0.307,-2.147c1.533,-4.599 3.373,-8.892 5.213,-13.185c0.92,-2.76 2.146,-5.52 4.6,-7.36c0.919,0 1.839,0.307 2.453,0c1.533,-0.92 3.373,-1.226 5.213,-1.533c0.919,0 1.533,-0.613 2.453,-1.227c2.146,-1.839 4.293,-3.373 7.052,-4.293c0.614,-0.306 1.534,-0.613 1.84,-1.226c1.534,-2.147 3.373,-3.68 5.213,-5.213c1.84,-2.147 3.373,-4.6 4.907,-6.746c3.373,-5.52 4.906,-11.653 4.599,-18.399c-0.307,-3.679 -1.533,-6.746 -4.599,-9.199c-3.374,-2.76 -7.053,-4.906 -11.653,-5.213c-0.613,-0.307 -1.533,-0.307 -2.146,-0.613c-1.84,-1.227 -3.68,-1.533 -5.827,-1.84c-3.986,2.146 -7.972,4.6 -10.732,7.973l-7.973,8.892c-5.519,6.133 -10.119,12.573 -13.799,19.932c-1.84,3.373 -3.679,6.746 -5.213,10.426c-3.679,7.666 -6.439,15.332 -6.746,23.918c-0.306,6.133 1.227,11.959 3.987,17.172c2.759,5.213 6.746,9.199 12.572,11.039c1.227,0.307 2.453,0.92 3.373,0.92c5.52,-0.307 10.733,0.307 15.945,-1.227c3.067,-0.92 6.747,-1.533 9.506,-3.373c3.68,-2.146 7.053,-4.599 10.12,-7.972c1.226,-0.92 1.839,-2.454 3.066,-3.373c4.293,-4.293 7.666,-9.506 12.572,-13.186c0.614,-0.613 1.533,-2.147 1.84,-2.147Z" style="fill:#57cac7;fill-rule:nonzero;"/><path d="M535.634,179.631c-6.746,8.586 -14.105,16.866 -21.772,24.838c-2.146,1.84 -3.986,3.987 -6.132,5.827c-0.92,0.92 -2.147,1.226 -3.373,2.146c-1.84,-2.453 -1.534,-4.599 -0.92,-6.746c0.92,-3.68 2.146,-7.359 3.373,-11.039c2.76,-7.053 5.519,-14.106 9.199,-20.852c1.227,-2.146 3.066,-4.293 4.906,-6.133c1.227,-1.226 2.76,-2.759 4.293,-3.679c0.92,-0.92 2.147,-0.92 3.067,-1.534c1.226,0.92 1.84,1.534 2.453,2.147c1.226,1.227 2.76,1.533 4.293,1.533c3.68,0.307 7.666,1.227 11.652,0.613c-3.68,4.293 -7.666,8.28 -11.039,12.879ZM620.574,79.359c-0.92,-0.613 -1.533,-1.226 -2.453,-1.533l-3.987,-1.84c-4.293,-2.146 -8.892,-2.759 -13.492,-1.839c-3.679,0.613 -6.439,3.066 -8.892,5.519c-3.987,4.293 -7.973,8.279 -11.346,12.572c-2.147,3.067 -4.6,5.827 -6.44,8.893c-3.066,5.52 -6.439,11.039 -8.892,17.172c-1.533,3.373 -2.453,7.053 -3.987,10.426c-3.679,8.279 -5.826,17.172 -8.279,25.451c-0.307,0.92 -0.613,1.533 -0.92,2.453l-1.84,-1.226c-4.293,-3.987 -9.199,-5.52 -15.025,-5.52c-2.76,0 -5.52,-0.613 -8.28,0.307c-0.613,0.306 -1.533,0 -2.453,-0.307l-2.453,0c-3.066,0.92 -6.133,2.147 -8.892,4.293c-3.987,3.373 -7.666,7.666 -10.426,12.266c-3.987,6.746 -8.893,13.492 -10.733,21.158c-1.226,4.293 -2.453,8.279 -3.066,12.572c-0.613,3.374 -0.613,6.747 -2.453,9.813c-0.614,1.227 -0.307,3.066 0.306,4.293c0.92,1.533 1.84,2.76 2.76,3.986c2.76,3.373 6.44,4.907 10.119,6.44c4.293,1.533 8.586,1.226 12.266,-1.533c4.293,-3.067 8.893,-6.133 12.879,-10.12c4.293,-4.293 9.199,-8.279 12.879,-13.492c0.613,-0.92 1.84,-1.533 3.066,-2.76c-0.306,1.227 -0.306,2.147 -0.306,2.76c-0.614,3.68 -1.533,7.36 -2.147,11.346c-1.226,5.826 -2.453,11.959 -3.373,17.785c-0.613,4.293 -0.613,8.28 -1.226,12.266c-0.614,3.68 0.306,7.359 -1.227,10.426c0.307,0.92 1.227,1.226 0.92,2.453c-1.84,7.053 -0.92,9.199 4.6,13.492c0.92,0.613 2.146,1.227 3.373,1.533c2.146,0.92 4.599,1.534 6.746,1.84c2.146,0.613 4.293,0.613 6.133,-0.92c2.453,-2.453 5.213,-4.599 7.666,-7.053c1.226,-0.919 2.146,-2.453 2.759,-3.986c1.227,-2.76 2.147,-5.519 3.067,-8.279c0.92,-3.987 2.453,-7.666 4.293,-11.039c0.613,-1.534 1.533,-2.76 2.146,-3.987l5.827,-11.959c3.066,-6.133 5.826,-12.265 8.892,-18.398c3.68,-7.36 7.36,-15.026 11.653,-22.385c4.293,-7.36 7.972,-15.332 12.879,-22.078l0,-0.307c0,-0.307 0,-0.613 -0.307,-0.92c-0.307,-4.6 -6.44,-3.066 -9.199,-1.226c-3.067,1.839 -5.213,5.212 -7.973,7.359c-2.76,6.439 -6.44,12.572 -10.119,18.705c-2.147,3.68 -4.6,7.359 -6.746,11.346c-2.147,3.68 -3.987,7.666 -6.133,11.346c-3.68,6.746 -7.666,13.799 -11.653,20.851l-6.132,10.733c0,-6.746 -0.307,-12.266 1.533,-17.785c0,-0.307 0.306,-0.92 0.306,-1.534c0.307,-5.826 1.534,-11.652 2.76,-17.478c1.84,-7.36 4.293,-14.412 5.213,-22.079c0.307,-0.919 0.613,-1.839 1.227,-2.759c0.306,-0.92 0.613,-2.147 1.226,-3.067l7.36,-21.465c0.92,-2.453 2.759,-4.599 3.986,-7.052c1.533,-2.147 2.453,-4.6 3.68,-6.747c2.453,-3.986 5.213,-7.666 7.972,-11.652l12.879,-19.625c1.227,-1.84 2.453,-3.68 3.373,-5.52c2.454,-5.213 5.52,-10.119 9.813,-14.105c0.92,-0.92 1.84,-2.147 2.453,-3.067c1.227,-1.533 2.147,-3.066 1.84,-5.213Z" style="fill:#57cac7;fill-rule:nonzero;"/></g><text x="287.072px" y="268.086px" style="font-family:'Avenir-LightOblique', 'Avenir', sans-serif;font-weight:300;font-style:italic;font-size:18px;fill:#e557bf;">the beauty of being all natural</text></g></svg>